<mxfile host="app.diagrams.net" modified="2021-05-31T03:46:02.404Z" agent="5.0 (Windows NT 10.0; Win64; x64) AppleWebKit/537.36 (KHTML, like Gecko) Chrome/86.0.4240.272 Whale/2.9.117.22 Safari/537.36" etag="ura7fPdBxRtQbdwuCbbG" version="14.6.6" type="github">
  <diagram id="FmvD_B0-vPtX5hXMvnhR" name="Page-1">
    <mxGraphModel dx="1815" dy="579" grid="1" gridSize="10" guides="1" tooltips="1" connect="1" arrows="1" fold="1" page="1" pageScale="1" pageWidth="827" pageHeight="1169" math="0" shadow="0">
      <root>
        <mxCell id="0" />
        <mxCell id="1" parent="0" />
        <mxCell id="vlVaum-pDu78f8PmDwP4-5" value="" style="shape=image;verticalLabelPosition=bottom;labelBackgroundColor=#ffffff;verticalAlign=top;aspect=fixed;imageAspect=0;image=data:image/png,iVBORw0KGgoAAAANSUhEUgAAAV0AAAGlCAYAAABZSSXDAAAAAXNSR0IArs4c6QAAAARnQU1BAACxjwv8YQUAAAAJcEhZcwAAEnQAABJ0Ad5mH3gAACqcSURBVHhe7d0PqBzV+cbxYkURCSaIIKJWjFQkiFcMIiJpIkgQEStIIiJyQUTSIIpKkBC8pMFKKnJFRIIIIiJBQlUkEZGmIqmIICaIpFIbRFIrSGqsWIOIvL/fs92jJydz5uzOnt359/3AcO/uzszOnNn32bOzszO/MADAzBC6ADBDhC4AzBChCwAzROgCwAwRugAwQ4QuAMxQK0J39+7dtmHDBlu9erX9+te/tiVLltgvfvELBgaGEQbVi+rmN7/5zaCO9uzZM6ws1KGxoXv48GH73e9+N3jB6MXyxz/+0fbu3Wt/+9vf7D//+c9wLAApqhfVjepHdbRq1apBXam+VGeYrUaG7pYtW+yXv/ylbdq0yf71r38N7wWQi+pK9aU6U71hdhoVuv/85z9tzZo1Nj8/b//4xz+G9wKYFtWZ6k11p/rD9DUmdP/617/ar371K9u2bdvwHgCz8vvf/35Qf6pDTFcjQlfvsNrgGzduHN4DYNZUf6pDerzT1YjQ1UcbvdMCqJc+aaoeMT21h6524mufEoBmUD3y5dr01Bq6OlxF357ypVn77Nu3b3AMqP5WtXbtWtu+ffvwFppC9ai65HCy6ag1dHWcoA5bQTMpVGOhGAtdje8Oyi8aFLQOodtcqkvVJ/KrNXR1gDbH4TaXQnLc0A2VjUPoNpfqUvWJ/GoLXf0UUb+MQXNNGrqHDh0ajBP72Smh22z6Jah+go+8agtd/QZcP0lEc00auppW42hbF1Ho6nEN/m4HNIPqM7btUF1toat3Uf0WHM3keqmbN28e3nO8VOhq+mXLltnOnTsH4x04cGD4yM/o6Tab6lMnmUJetYWuznqkk3CgmXbs2DEIy+XLlw/vOV5Z6CpwV65c+VMvSfNSAIfBS+g2m+pTdYq8agtd7aTnbGHNpbBVL9X9DcVCV+MqYMOPpbrter4Oodtsqk++TMuv1tD973//O7yFJlEQqqcq+hJMwXvkyJHBbScWugrXWJCqx7t+/frhLUK36Qjd6ah198Lf//734S00RdE+WAVp2HONhS66g90L01Fb6GoH/V/+8pfhLTSBC9xwd4J6uf4+WkmFrh4bZaCn21z6Ik1feCOv2kJXBcwhY83hgjUMXMc97o65zdHTZfdCs3HI2HTUFro66Jp30fYidLtPP17iemr51Ra6op30/Ay4nQjdbuNnwNNTa+hywpv2InS7jRPeTE+tocupHduL0O0uTu04XbWGrnASc6BZOIn5dNUeuqLLg3BBSqB+umwWl+uZrkaELhemBOrHhSlnoxGhK+4S7FygEpg9fdJU/XEJ9ulrTOiK3mH10Ub7lPhyDZg+1ZnqTXVHD3c2GhW6jnbi69tTHbbCcbxAfqor1ZfqjC/NZquRoSs6XEXHCeoAbf0yRj9J1G/BdRIOTgkJjE71orpR/aiO9EtQ1ZXqi8PCZq+xoevTTxH1G3C9WHTWI71gdIwoAwNDelC9qG50kinVEdc9q1crQhftoAIHUI4qQTaELpBGlSAbQhdIo0qQDaELpFElyIbQBdKoEmRD6AJpVAmyIXSBNKoE2RC6QBpVgmwIXSCNKkE2hC6QRpUgG0IXSKNKkA2hC6RRJciG0AXSqBJkQ+gCaVQJsiF0gTSqBNkQukAaVYJsCF0gjSpBNoQukEaVIBtCF0ijSpANoQukUSXIhtAF0qgSZEPoAmlUCbIhdIE0qgTZELpAGlWCyhYWFmxubu6nQaHr315cXByOCcAhdFHZ0aNHB0FbNCxdutT2798/HBOAQ+hiIvPz84Whq/sBnIjQxUSKerv0coE4QhcTC3u79HKBOEIXE/N7u/RygXKELrJwvV16uUA5QhdZqLdLLxdIqy103cdRBgaGZg/Iq9bQBdBs1Gl+hC6AKOo0P0IXQBR1mh+hCyCKOs2P0AUQRZ3mR+gCiKJO8yN0AURRp/kRuqhE22/fvn3DW6PTNP62rzqflPB5RjWr5WuLKm2IcrW1KBuz2VKhFQsjN13R4D/u6P9xQs2fXzj4Ussva9eute3btw9v/c+ky9c1qTbE+Gpr0b5vzD179gzaYOfOncN7ih05cmQQDCtXrhyMr2H58uWD+/TYoUOHRprPsmXLTgiYMqnQ0mNFYZSabhqhtmPHjsH6+VLLIYRuWqoNMb7aWrTvG3P9+vWDoleYxhw4cGAQJhs2bBj87+h/hYXCRty8YlzAK6BH5aaJiYVRKuymEWruTciXWg4ZZbocy9dmqTbE+Gpr0T5vTNc7dX/9QHX0mAI31YOVVKgqlDWMQ+Nrni7YQ3rMDX5wpcIud6i5Xq56/W55/CHGtX34ZuWWzx8IXeRUW4v2eWMqpNR7Ff11//t0X1nvNRTbfeDCSME8Ks1HvUBNo/kWvSnEwigM1VD4eGw+o9AbkqYvWr7Ucqh93Xr6z59z+bqgrA1RTW0t2ueN6QJNXLApHH1qn3GCcvPmzYP5htQTLLq/iMLF7fJwvWbd5wLdX8ZYGLnQCgf3huAed/R/0XzKaDm0vlqu2LTh8/j8Ntd4Wl+3bjmWr0tibYjqamvRvm5MFXwYgrrt70ZQz23cYncfl8NpFChFPeCQplfghuEqeky7G/weeWz5wtAKucf9YdT11HJp+RSYWlb3xlAkthxqZ03v944V4O6NJpxunOXroqI2xGRqa9G+bkwFl4rc54recYUfFrsCR/e7Idz9oNt+MLrwLgunqoqWT8LQCoWPx+ZTxO1yGXX8kEI7Nr3mrU8FkyxfF5VtS1RTW4v2cWOq6LXescH1vtx4ZcWu8AhD1/XiXE9VQTLuF2iOnlvTqhfuL6OeM/blmoShFcoVam55UgMmQxvmV1uL9nFjKqz8Hq1PAen3UjWefztUFLqi0HW7KvT/OPuFHRfe6ln7vWSFueanZYutxyxDt2y6UZdjlKHK8nWF1h951daifdyY6jXGeon+lzviQqHom3mJha7bVeGCswo/uIuU9cTLwkwh7h539H+VUEtNFz5PVVWXrytytCGOR+jOyCj7V8Owi/U4FQIK8KLQ1Xh6Hj0W7jse1SShmxKGYdX5pKYLn6eqqsvXFTnaEMcjdGdEuwrCoxZCGif82K6C175VBaHaTIPGUaDGAlyBq/HKAr5MLOxH2b2QEoah/q8SaqnpwuepqurydUWONsTxCF0UUtBU+SItJQxD/V8l1PxlKhsmpXkQusiJ0MVM5QrdWSF0qdPcCF0AUdRpfoQugCjqND9CF0AUdZofoQsgijrNj9AFEEWd5kfoAoiiTvMjdAFEUaf51Rq6DAwMzR+QFy2KbChQII0qQTaELpBGlSAbQhdIo0qQDaELpFElyIbQBdKoEmRD6AJpVAmyIXSBNKoE2RC6QBpVgmwIXSCNKkE2hC6QRpUgG0IXSKNKkA2hC6RRJciG0AXSqBJkQ+gCaVQJsiF0gTSqBNkQukAaVYJsCF0gjSpBNoQukEaVIBtCF0ijSpANoQukUSXIhtAF0qgSZEPoAmlUCbIhdIE0qgTZELpAGlWCyhYWFmxubu6nQaHr315cXByOCcAhdFHZ0aNHB0FbNCxdutT2798/HBOAQ+hiIvPz84Whq/sBnIjQxUSKerv0coE4QhcTC3u79HKBOEIXE/N7u/RygXKELrJwvV16uUA5QhdZqLdLLxdII3RRycGDB23Xrl22detWW7duna1YsWLQ09Vf3db9elzjAfgZoYtShw4dstdee80effRRu/322+3yyy+3U045xS666CK76aabbPPmzfbiiy/agQMH7NixY4O/uq379bjG0/iaTtNrPpqf5gv0EaGLgcOHD9sbb7xhjz/+uN1555121VVX2ZIlS+z888+366+/3h588EF77rnn7L333rNvv/12ONVoNL6m0/Saj+an+Wr+eh49n55Xz6/lALqM0O2ZL7/80t566y176qmnbMOGDbZq1So788wz7eyzz7Zrr73W7rnnHtuxY4ft27fPvvrqq+FU06H563n0fHpePb+WQ8uj5dLyaTm1vFpuoAsI3Y76+uuv7Z133rFnnnnG7r33XrvuuuvsnHPOsWXLltk111xjd999tz355JO2d+9e++KLL4ZTNYOWR8ul5dNyanm13Fp+rYfWR+ul9dN6Am1C6Lbcd999Z++//749//zztmnTJrvhhhvsggsusNNPP92uvPLKwSFcjz32mL3++uv22WefDadqJy2/1kPro/XS+mk9tb5ab62/2kHtoXYBmojQbYkff/zRPvzwQ9u5c6dt2bLFbr75Zrv44ovt5JNPtssuu8xuu+02e+SRR+zVV1+1Tz75ZDhVP2h9td5af7WD2kPtovZRO6m91G5qP7UjUCdCt4E+/vhje/nll23btm1266232qWXXmonnXSSXXLJJXbLLbfYww8/bC+99JJ99NFHwylQRO2jdlJ7qd3UfmpHtafaVe2rdlZ7A7NC6Nbo008/td27d9v27dvtjjvusCuuuMJOO+00u/DCC+3GG2+0hx56yF544QX74IMP7Pvvvx9OhUmoHdWeale1r9pZ7a12V/trO2h7aLto+wC5Eboz8Pnnn9ubb75pTzzxhN1111129dVX2xlnnGHnnnuurV271u6//3579tln7d1337VvvvlmOBVmSe2u9td20PbQdtH20XbS9tJ20/bTdtT2BKoidDM6cuSIvf322/b000/bxo0bbfXq1XbWWWcNBv2v+/SYxtG4aD62KXIjdCugVwQ+vaAqQrcE+/8wLvbTI4XQHWrbN93qTamwq9CJafRLMJlkPhgdR6TA6V3otumYTj8cQ2VhqemKBjcv//8uha7WSevm89e1aTj2up86G7pd+PVSWWCkQrcsaNoWulreUZaxbaEb06dfGfZR60O3q7/T1zfhZYFB6J6oK6Eb0+bzaTSRznpXx3cxrQndvp2RSuupwFi/fv3wnuMpLPW4Bv3vSwWN/zih235NOnNcm+gTg14f+jvL8G1c6HLuVbM9e/YMei8qEv3VPr8QPd0TaZ00ri/VFl02zXMkd4ELXTfMKnxrC90ffviBqwwEtJ7qqbjAdfetXLly0OP12yEVuuHg94Z1u+2hq9eO2sStn/7Xm5X+9/nr6qjXt3z58sFjamu9/vr0wwa9jka9GojqtKvC0HXDtMN35qH773//e/DlgFbu1FNPtfPOO8/WrFljDzzwwOD4xr5S0StwNYRvMnpMoaPwdeEwaU/XH0YNXc0znNYf/GCXcceP0bj+Mqp9FJZqK9ceClwXpD7d9ttCgaJ2VKCIe1PTvPpO9ac6VD2qLlWfblv1cdCngGmgp9tSk4aue7yNPV0FZFFgazeMxvX566rXkW6Hryf35tAXWn96uvGern7ePc2rWjfulcY+3f9RYShc1AvzXxC6nfo4rPG6HLqxZS4KT39d3eOxoWtv7uzTLReG7rTD1mnN23ufjl5QD8N9fHYfgx21gfZf6vFYSOgF5IKmiP94H0O3azh6oRoXurMKW6f1r8AuHqerUFXxlFGPNxaWeiEVDe4juf6vEroutGKDm78z7vgxGtdfRrVP0bQaR+P6dNutq97A/Nttw3G6eamXP8uwdbr3tj/U5l+kTRq6KX7wjBO6dQlD14W57nO7WdSTc7tifGHIuk8J7j5Nr33BRYfl1YVfpHVbZ0M3pg3nXph090JK20NXdLSCC1m1hfZzuzD2haGrkNW8NI2bVu1cx/5czr3QT70L3ZimnWVski/SUvwgakPodgFnGYND6Jbo6vl0Cd3p0euA8+miDKFbAVeOQNevHFH0QxNHj/m7bDAeQjcjfeTnelrd0tdtqmDVm0fRF7qE7mQI3RngelrNx6eX47lgLQpYQncyhG6N2P83e1z3bjQuWF3w+gjdyRC6DcQ33Xm07bp3TeIHq3Yx+F+2ErqTIXRbgmM649p03bu2CINVX6q5Y5kJ3ckQui3Xp18vdeG6d20RBqvetLSfWwjdyRC6HdXm3+l39bp3bVIUrApdF76EbnWEbs806YxUfbvuXZvEerPazUDoTobQxcA0z73KOZLbJxa66un6v2jE+AhdlNKXJ6NeZeDYsWODv1wNBIgjdFHJwYMHbdeuXbZ161Zbt26drVixYtAD0l/d1v16XOMB+Bmhi2xiv9UH8DOqBNkQukAaVYJsCF0gjSpBNoQukEaVIBtCF0ijSpANoQukUSXIhtAF0qgSZEPoAmlUCU6gc6fqZ6Ah/fSzLFgJXSCNKkEhd0YpX+qUfoQukEaVoFDYq1UAF12k0EfoAmlUCaLU23WXaVGgpk5SQ+gCaVQJohSyClIFb6qXK4QukEaVoJTCdtQwJXSBNKoEpfxrY6UQukAaVYJShC6QF1WCUoQukBdVglKELpAXVYJsCF0gjSpBNoQukEaVIBtCF0ijSpANoQukUSXIhtAF0qgSZEPoAmlUCSpbWFiwubm5nwaFrn97cXFxOCYAh9BFZUePHh0EbdGwdOlS279//3BMAA6hi4nMz88Xhq7uB3AiQhcTKert0ssF4ghdTCzs7dLLBeIIXUzM7+3SywXKEbrIwvV26eUC5QhdZKHeLr1cIK220HUfRxkYGJo9IK9aQxdAs1Gn+RG6AKKo0/wIXQBR1Gl+hC6AKOo0P0IXQBR1mh+hCyCKOs2P0AUQRZ3mR+gCiKJO8yN0Ucm+fftG2oZr16617du3D28dT/dP63Uw6vKFwun0v+7rq2ltnz6rrUXZmM2lkFFYahtpWLlype3cuXP46P/UFbpumYoG3yjLV7RshO7xUm2I8dXWon3fmHv27Bm0QRhmoSNHjgyCQcGn8TUsX758cJ8eO3To0EjzWbZsWTT8fFoujevPz923efPm4T3xUPPDOja45dBf3Z7Ujh07BsvnI3TzyLF9cLzaWrTvG3P9+vWDoleYxhw4cGAQJhs2bBj87+h/hYXCRty8YlzAK6BTXKCH3DwU9DJKqElRsDm5QrdomUdZvlGm0/+ELnKqrUX7vDFd79T99QPV0WNhjzMmFaoKZQ2j0HxiIeM/NkqoybRD1/Vy9WageYVDjGv78M3KrZc/ELrIqbYW7fPGVNio9yr66/736b6y3mtIwVMUbi6MFMyjmEZPt2j9ZNLQ1RuSpi9600otn5ZJz6/19UM1nE7/E7rIqbYW7fPGVKG7ENRf11PzqX1GDUrR/lbNN6SeYNH9MW55qu7T9bnAjz1/1dDVfLUsWqZYIJYtn9/mGk+7eGJvJvo/9hx9UGX7oFxtLdrXjamCD0NIt/2QU89t3GJ3H5fDaRQoRT3XMpqHeqian4aqRy/oeTWfMMSdcUNXwahpND/NN7Y7RWLLp+XQ9H7vWAGuddT8wun0f9imfTLO9sFoamvRvm5Mfaz1e4ziit5xhR8WuwspN4S7H8KP8i68y8KpqlioOf4bh7/f1Tdu6LpdLlVDUM8fm17z1nKG6+XWoa/G2T4YTW0t2seNqaLXescG1/ty45UVu8IjDF3Xi3PhpiAZ9Qs0FzajDC649H8RrYeWw39z0bL4H+Nl3ND1+ctTNmAytGF+tbVoHzemelJ+j9anUNLgaDz/dqgodEVh5z7K6/9x9guHFIpFzyGx0HX7S8NlV9hqnTS4N5NJQ7fsTansTUHc46MMZc/TdVp/5FVbi/ZxY2rfrYK3iP/ljrhQ8Pc9+mKh63ZVuF7vJKqErsI23H3i0+Oar9QZuqNKPU/X5WhDHK+2Fu3bxhxl/6rfSxUXnAonfzqFgAK8KBA1np5Hj5WF3yiqhO44CN3my9GGOF5tLdq3jakeXuzQKUfjhLsfVPDaL6vwVZtp0DgK1FiAKyg13qRfoBG6hG6ONsTxamtRNmbzNT10RxkmpXkQusipthZlY7Zb3aE7K4QudZoboQsgijrNj9AFEEWd5kfoAoiiTvMjdAFEUaf5EboAoqjT/AhdAFHUaX61hi4DA0PzB+RFiyIbChRIo0qQDaELpFElyIbQBdKoEmRD6AJpVAmyIXSBNKoE2RC6QBpVgmwIXSCNKkE2hC6QRpUgG0IXSKNKkA2hC6RRJciG0AXSqBJkQ+gCaVQJsiF0gTSqBNkQukAaVYJsCF0gjSpBNoQukEaVIBtCF0ijSpANoQukUSXIhtAF0qgSZEPoAmlUCbIhdIE0qgTZELpAGlWCbAhdII0qQTaELpBGlaCyhYUFm5ub+2lQ6Pq3FxcXh2MCcAhdVHb06NFB0BYNS5cutf379w/HBOAQupjI/Px8YejqfgAnInQxkaLeLr1cII7QxcTC3i69XCCO0MXE/N4uvVygHKGLLFxvl14uUI7QRRbq7dLLBdIIXVRy8OBB27Vrl23dutXWrVtnK1asGPR09Ve3db8e13gAfkbootShQ4fstddes0cffdRuv/12u/zyy+2UU06xiy66yG666SbbvHmzvfjii3bgwAE7duzY4K9u6349rvE0vqbT9JqP5qf5An1E6GLg8OHD9sYbb9jjjz9ud955p1111VW2ZMkSO//88+3666+3Bx980J577jl777337Ntvvx1ONRqNr+k0veaj+Wm+mr+eR8+n59XzazmALiN0e+bLL7+0t956y5566inbsGGDrVq1ys4880w7++yz7dprr7V77rnHduzYYfv27bOvvvpqONV0aP56Hj2fnlfPr+XQ8mi5tHxaTi2vlhvoAkK3o77++mt755137JlnnrF7773XrrvuOjvnnHNs2bJlds0119jdd99tTz75pO3du9e++OKL4VTNoOXRcmn5tJxaXi23ll/rofXRemn9tJ5AmxC6Lffdd9/Z+++/b88//7xt2rTJbrjhBrvgggvs9NNPtyuvvHJwCNdjjz1mr7/+un322WfDqdpJy6/10PpovbR+Wk+tr9Zb6692UHuoXYAmInRb4scff7QPP/zQdu7caVu2bLGbb77ZLr74Yjv55JPtsssus9tuu80eeeQRe/XVV+2TTz4ZTtUPWl+tt9Zf7aD2ULuofdROai+1m9pP7QjUidBtoI8//thefvll27Ztm91666126aWX2kknnWSXXHKJ3XLLLfbwww/bSy+9ZB999NFwChRR+6id1F5qN7Wf2lHtqXZV+6qd1d7ArBC6Nfr0009t9+7dtn37drvjjjvsiiuusNNOO80uvPBCu/HGG+2hhx6yF154wT744AP7/vvvh1NhEmpHtafaVe2rdlZ7q93V/toO2h7aLto+QG6E7gx8/vnn9uabb9oTTzxhd911l1199dV2xhln2Lnnnmtr1661+++/35599ll799137ZtvvhlOhVlSu6v9tR20PbRdtH20nbS9tN20/bQdtT2BqgjdjI4cOWJvv/22Pf3007Zx40ZbvXq1nXXWWYNB/+s+PaZxNC6aj22K3AjdCugVgU8vqIrQLcH+P4yL/fRIIXSH6vqme/ny5YPDmWJUvOo5FSl7rC10khz9Ks2n2+78vKlhkvXXL940xOj8EHqOovNElD1WhCNS4PQudGd5TKfm4wdEUZF2MXRdIBUNWl+f7gtDt4jWVeOOqmgZwnaeZegW4djrfups6Nb966WikHA9OD9kwtAdpZeneUtTQzdG6xkur9YnFbqazq23/qYUtbP4bSdFoavtofFig3vTyBG6MX36lWEftT50m/o7fRVkUZiEhd7Fnm6M1tsPPYm1k7jw9NfR3ReGpU/jh88jame/px1ui1BZsE4zdGPafD6NptMZ8Gb1vUxrQrdtZ6SKhYnCwC/0PoVuUZsU3ed6m2Xr5nq/GsL2i4WunqfNoRvTpDPHtZUO/9P2vO+++6Yevo0L3a6ce1VFr43o04te9/khkwpdFZEfFL42hW5sWcP2yKGonUX3+WGcCt3YfKRJoRszzXMkd40LXTdMM3xrC90ffvih81cZ8HtjbgjXJRW6brqiwh8ndF3vsWgI5zHOuKMoCyjdX7Ruk3LP6Q9hO6dCV49puqJxytap6bTMo14NRHXaB2HoumEa4Tvz0NXHG305oBU69dRT7bzzzrM1a9bYAw88MDi+sW/KQteFgh4v6u22paerbe33MH16zA9drY97wY8zVAlu175FND/NV4rm3+bQjVH9qQ5Vj6pL1adr3z4PuuDqK6+8MmylydHTzcwV6yiD1isWugopjeMUBUQbQlfrEAtc0eOjBGbsjSfk2jY1aH6x0HWB6raLH8BOm0NXy0xP93hFPV2Fre7PfYXr2kI3povX04oVtxSFrsYtKmgFrB8844SupgtfVG4I5zHOuDFaJ40frltI4+QM3VDZdEXbxQVs+Ebh1sctaxtCl326o/NDd1ph6zQudGPafD2touJ2FAh+MIU93JDm44KvqT1dLWPZOvg0XlHohus2i9B1QepvD58LZI3XpNDl6IXJKWSnHbZOa0I3pg3X0wqL2xeG7jiaGrrjaFLojqOO0OU43elZWFiYetg6rQ/dmCZdT4vQjRs1dKtqY+jyi7Ru62zoxtRxPS1CN64sdPVYaiia1tfk0OXcC/3Uu9CNaepZxsp0OXRnYZahy1nG4BC6JTifLsal1wHn00UZQrcCrhyBrl85QusQ68nrsaqfzkDoZsX1tLqnr9tUweqGEKE7GUJ3BrieVvPx6eV4LliLApbQnQyhWyP2/80e++lH44LVfWHoI3QnQ+g2EN9051HXESld4Aer3oT8ozwI3ckQui3BMZ1xdRx73XVhsOrQRndoH6E7GUK35fr066Um/cqw68JgVeC6H5kQupMhdDuqzb/Tb8P5NLquKFi1i8HtaiB0qyN0e6ZJZ6Rq85njui7Wm1Vvl57uZAhdDEzz3KtdPEdy18WCVW+SOpqB0K2O0EUpHTI06lUGjh071vnr3gGTInRRycGDB23Xrl22detWW7duna1YsWLQA9Jf3db9elzjAfgZoYtswoPoAZyIKkE2hC6QRpUgG0IXSKNKkA2hC6RRJciG0AXSqBJkQ+gCaVQJsiF0gTSqBCfQ7+uLrqDrfo0UQ+gCaVQJChX9DNQ/vV8RQhdIo0pQKOzVKoD9E1kXIXSBNKoEUertaleDKFBT50sgdIE0qgRR7vpY4eVaYghdII0qQSmF7ahhSugCaVQJSmlfrnYzjILQBdKoEpQidIG8qBKUInSBvKgSlCJ0gbyoEmRD6AJpVAmyIXSBNKoE2RC6QBpVgmwIXSCNKkE2hC6QRpUgG0IXSKNKkA2hC6RRJahsYWHB5ubmfhoUuv7txcXF4ZgAHEIXlR09enQQtEXD0qVLbf/+/cMxATiELiYyPz9fGLq6H8CJCF1MpKi3Sy8XiCN0MbGwt0svF4gjdDExv7dLLxcoR+giC9fbpZcLlCN0kYV6u/RygTRCF9n8+c9/Hv4HIIbQRSUHDx60Xbt22datW23dunW2YsWKwe4F/dVt3a/HNR6AnxG6KKXLsL/22mv26KOP2u23326XX365nXLKKXbRRRfZTTfdZJs3b7YXX3zRDhw4YMeOHRv81W3dr8c1nsbXdJpe89H8NF+gjwhdDBw+fNjeeOMNe/zxx+3OO++0q666ypYsWWLnn3++XX/99fbggw/ac889Z++99559++23w6lGo/E1nabXfDQ/zVfz1/Po+fS8en4tB9BlhG7PfPnll/bWW2/ZU089ZRs2bLBVq1bZmWeeaWeffbZde+21ds8999iOHTts37599tVXXw2nmg7NX8+j59Pz6vm1HFoeLZeWT8up5dVyA11A6HbU119/be+8844988wzdu+999p1111n55xzji1btsyuueYau/vuu+3JJ5+0vXv32hdffDGcqhm0PFouLZ+WU8ur5dbyaz20PlovrZ/WE2gTQrflvvvuO3v//fft+eeft02bNtkNN9xgF1xwgZ1++ul25ZVXDo6bfeyxx+z111+3zz77bDhVO2n5tR5aH62X1k/rqfXVemv91Q5qD7UL0ESEbkv8+OOP9uGHHw4uib5lyxa7+eab7eKLL7aTTz7ZLrvsMrvtttvskUcesVdffdU++eST4VT9oPXVemv91Q5qD7WL2kftpPZSu6n91I5AnQjdBvr444/t5Zdftm3bttmtt95ql156qZ100kl2ySWX2C233GIPP/ywvfTSS/bRRx8Np0ARtY/aSe2ldlP7qR3VnmpXta/aWe0NzAqhW6NPP/3Udu/ebdu3b7c77rjDrrjiCjvttNPswgsvtBtvvNEeeughe+GFF+yDDz6w77//fjgVJqF2VHuqXdW+ame1t9pd7a/toO2h7aLtA+RG6M7A559/bm+++aY98cQTdtddd9nVV19tZ5xxhp177rm2du1au//+++3ZZ5+1d99917755pvhVJgltbvaX9tB20PbRdtH20nbS9tN20/bUdsTqIrQzejIkSP29ttv29NPP20bN2601atX21lnnTUY9L/u02MaR+Oi+dimyI3QrYBeEfj0gqoI3RLs/8O42E+PFEJ3qI5vuvVrLJ0kRoczlXHj+YN+rSUqbt0uo3HV+4rRPMoen5TmvXz58uGtOI0Xrqc7R4P+13LGaDyNo7YStak/H3d/yLXttHFECpzehW6Tjul0YVgWeLHAUgC5sFZolAV3WejINENXYajl15AKvqJ1cOuuZSwLbn8dXOA67rZ/kh33nG6oA8de91NnQ7cNv15yQRAGgpMKZKesJ6uCLgsrmWboat4atIyud+5z4Vf2piBhTzakdXSh7f/vaP20HI7mpXE06P8m6dOvDJtCJ2OaldaHblt/p69idyEUBoK4MBqFGzcW3OG8Q3p8WqGrANRyxdZnlOVzNG5ZcIsL51BsHZsYujFtPp9G0+lIFL0O7rvvvuE909OOV9v/69oZqRQArjemv2FvNNYzjNH0YXi5ACoKY5//BpCTtpe/XmEPdNTlc2IB6bdVUVtKbNrY/W3SpDPHtZULXTcofKf15XjjXm19OPdqUW9Mt1UUzjg9QNG4YdjEenchBU8YupqX/yL0h1HmKZqnvw7h8vg91FFpfC2vT/e5touFbuy5uhC6MdM8R3LXhKHrhmmEb22vth9++KG3VxlQ+IQhp9v+fUWh64LDDf74Rb1GzSMMqCJFoZtDuDzhMsaCUMut+93gzyNsJ83DD1lCN03tOerVQP70pz8Ngic1aD9zavjtb3+bHBR+owxzc3MjDdoXnhp0QVUN/mvOH/TYK6+8Mmy9yc381aaPN/pyQCtz6qmn2nnnnWdr1qyxBx54YHB8Yx+U9SKdMFxCCqbwcT+oXcCNYhqh68KsaAiX0Q9VnwtK//EwPLXc/ptTWegW3d/H0I1R/akOVY+qS9Wn2ka7KP7whz/Y4uJidFCPOTUouFKDdpOMMuiq06MM6qWmBl3JWgGtdQ0HBbzmk1Ntr7a+9nRjxS+6XyEgsfBwikLXn6aoNz0OzafoRahBz52icdy6+ML18tc5VBS64k8TPh6GsqP2KFpuzado/C5Te43a01Wd9oHCVa8DN0wjbJ3Gvdq6vk9XQRgLwzAYFC5+L85XFLqiF4wLdv2tg4payxF7s3TLKGWhFwtd106atihI/fk7Gq+oLbscuuzTHZ0L3WmGrdOaV1tXjl7QhnW9tFAYMi68ioJFoVoUurpP4+vxUWmaccZPUbiVzU/L5y+7/td6hkHpAjEMXb9ditpSz6/HnbJg7ULocvTC5BYWFqYetk7r3+LbdJxuGAZFFFZhj0zhoun8wQ8tnwvuol5djAu9XFLPXxR0brnDIQxcx7VJjFsnN8S0KXQ5Trcb2vFqq4DraaGt+EVat3U2dGO4nhaagnMv9FPvQjeG62lhmtp4ljG366VoV5Ee0y4ejI/QLcH5dDEuvQ66cj5dF6wK3nDfOqFbHaFbAVeOQB+uHOGCtShgCd3qCN2MuJ5W9/R5m/rB6sLXIXSrI3RngOtpNR+fXk7kB6s7NtohdKsjdGvUpf1/bcF++tGFwap2cceHE7rVEboNxPW08uCIlMkUBat+vKMfshC61RG6LcExnXEcez0dRcGqwHXBS+hWQ+i2XJ9+vcSvDGcr1pvVbgbdT+hWQ+h2VJt/p9/W6951TdkuBPV2Cd1qCN2eadIZqbpy5jhgHIQuBqZ57tU+XPcOGBWhi1I6PnPUqwwcO3ast9e9A0ZF6KKSgwcP2q5du2zr1q22bt06W7FixeDgef3Vbd2vxzUegJ8RusimLScDB+pElSAbQhdIo0qQDaELpFElyIbQBdKoEmRD6AJpVAmyIXSBNKoE2RC6QBpVghPohCb6bX1IP9ktC1ZCF0ijSlBIJzPRCU987pR+MYQukEaVoFDYq1UAu6sGxBC6QBpVgij1drWrQRSoqfMlELpAGlWCKHcxQv/aWGUIXSCNKkEphe2oYUroAmlUCUqVXT0gROgCaVQJShG6QF5UCUoRukBeVAlKEbpAXlQJsiF0gTSqBNkQukAaVYJsCF0gjSpBNoQukEaVIBtCF0ijSpANoQukUSXIhtAF0qgSVLawsGBzc3M/DQpd//bi4uJwTAAOoYvKjh49OgjaomHp0qW2f//+4ZgAHEIXE5mfny8MXd0P4ESELiZS1NullwvEEbqYWNjbpZcLxBG6mJjf26WXC5QjdJGF6+3SywXKEbrIQr1derlAWm2h6z6OMjAwNHtAXrWGLoBmo05zM/s/eO2zE8dZZfUAAAAASUVORK5CYII=;" vertex="1" parent="1">
          <mxGeometry x="-69" width="349" height="421" as="geometry" />
        </mxCell>
        <mxCell id="vlVaum-pDu78f8PmDwP4-21" style="edgeStyle=orthogonalEdgeStyle;rounded=0;orthogonalLoop=1;jettySize=auto;html=1;entryX=0;entryY=0.5;entryDx=0;entryDy=0;" edge="1" parent="1" source="vlVaum-pDu78f8PmDwP4-6" target="vlVaum-pDu78f8PmDwP4-8">
          <mxGeometry relative="1" as="geometry" />
        </mxCell>
        <mxCell id="vlVaum-pDu78f8PmDwP4-23" style="edgeStyle=orthogonalEdgeStyle;rounded=0;orthogonalLoop=1;jettySize=auto;html=1;entryX=0.5;entryY=0;entryDx=0;entryDy=0;" edge="1" parent="1" source="vlVaum-pDu78f8PmDwP4-6" target="vlVaum-pDu78f8PmDwP4-22">
          <mxGeometry relative="1" as="geometry" />
        </mxCell>
        <mxCell id="vlVaum-pDu78f8PmDwP4-6" value="AGV != AGV05" style="rhombus;whiteSpace=wrap;html=1;" vertex="1" parent="1">
          <mxGeometry x="-10" y="421" width="180" height="80" as="geometry" />
        </mxCell>
        <mxCell id="vlVaum-pDu78f8PmDwP4-4" value="홈에서 물건 들고 A의 input으로 이동" style="whiteSpace=wrap;html=1;" vertex="1" parent="1">
          <mxGeometry x="270" y="340" width="120" height="60" as="geometry" />
        </mxCell>
        <mxCell id="vlVaum-pDu78f8PmDwP4-3" value="&amp;nbsp;기준 위치로 이동" style="whiteSpace=wrap;html=1;" vertex="1" parent="1">
          <mxGeometry x="270" y="260" width="120" height="60" as="geometry" />
        </mxCell>
        <mxCell id="vlVaum-pDu78f8PmDwP4-2" value="아무 실행 X" style="whiteSpace=wrap;html=1;" vertex="1" parent="1">
          <mxGeometry x="260" y="120" width="120" height="60" as="geometry" />
        </mxCell>
        <mxCell id="vlVaum-pDu78f8PmDwP4-17" style="edgeStyle=orthogonalEdgeStyle;rounded=0;orthogonalLoop=1;jettySize=auto;html=1;entryX=0.5;entryY=0;entryDx=0;entryDy=0;" edge="1" parent="1" source="vlVaum-pDu78f8PmDwP4-8" target="vlVaum-pDu78f8PmDwP4-15">
          <mxGeometry relative="1" as="geometry" />
        </mxCell>
        <mxCell id="vlVaum-pDu78f8PmDwP4-18" style="edgeStyle=orthogonalEdgeStyle;rounded=0;orthogonalLoop=1;jettySize=auto;html=1;entryX=0;entryY=0.5;entryDx=0;entryDy=0;" edge="1" parent="1" source="vlVaum-pDu78f8PmDwP4-8" target="vlVaum-pDu78f8PmDwP4-16">
          <mxGeometry relative="1" as="geometry" />
        </mxCell>
        <mxCell id="vlVaum-pDu78f8PmDwP4-8" value="C-1 output buffer &amp;gt;=&lt;br&gt;C-2 output buffer&amp;nbsp;" style="rhombus;whiteSpace=wrap;html=1;" vertex="1" parent="1">
          <mxGeometry x="240" y="421" width="180" height="80" as="geometry" />
        </mxCell>
        <mxCell id="vlVaum-pDu78f8PmDwP4-11" value="N" style="text;html=1;strokeColor=none;fillColor=none;align=center;verticalAlign=middle;whiteSpace=wrap;rounded=0;" vertex="1" parent="1">
          <mxGeometry x="170" y="440" width="40" height="20" as="geometry" />
        </mxCell>
        <mxCell id="vlVaum-pDu78f8PmDwP4-14" value="Y" style="text;html=1;strokeColor=none;fillColor=none;align=center;verticalAlign=middle;whiteSpace=wrap;rounded=0;" vertex="1" parent="1">
          <mxGeometry x="85.5" y="530" width="40" height="20" as="geometry" />
        </mxCell>
        <mxCell id="vlVaum-pDu78f8PmDwP4-15" value="C-1에서 제품 가지고 D로 이동" style="rounded=0;whiteSpace=wrap;html=1;" vertex="1" parent="1">
          <mxGeometry x="270" y="551" width="120" height="60" as="geometry" />
        </mxCell>
        <mxCell id="vlVaum-pDu78f8PmDwP4-16" value="C-2에서 제품 가지고 D로 이동" style="rounded=0;whiteSpace=wrap;html=1;" vertex="1" parent="1">
          <mxGeometry x="500" y="431" width="120" height="60" as="geometry" />
        </mxCell>
        <mxCell id="vlVaum-pDu78f8PmDwP4-19" value="Y" style="text;html=1;strokeColor=none;fillColor=none;align=center;verticalAlign=middle;whiteSpace=wrap;rounded=0;" vertex="1" parent="1">
          <mxGeometry x="335.5" y="531" width="40" height="20" as="geometry" />
        </mxCell>
        <mxCell id="vlVaum-pDu78f8PmDwP4-20" value="N" style="text;html=1;strokeColor=none;fillColor=none;align=center;verticalAlign=middle;whiteSpace=wrap;rounded=0;" vertex="1" parent="1">
          <mxGeometry x="420" y="436" width="40" height="20" as="geometry" />
        </mxCell>
        <mxCell id="vlVaum-pDu78f8PmDwP4-25" style="edgeStyle=orthogonalEdgeStyle;rounded=0;orthogonalLoop=1;jettySize=auto;html=1;entryX=0.5;entryY=0;entryDx=0;entryDy=0;" edge="1" parent="1" source="vlVaum-pDu78f8PmDwP4-22" target="vlVaum-pDu78f8PmDwP4-24">
          <mxGeometry relative="1" as="geometry" />
        </mxCell>
        <mxCell id="vlVaum-pDu78f8PmDwP4-22" value="제품 이동" style="rounded=0;whiteSpace=wrap;html=1;" vertex="1" parent="1">
          <mxGeometry x="20" y="555" width="120" height="60" as="geometry" />
        </mxCell>
        <mxCell id="vlVaum-pDu78f8PmDwP4-32" style="edgeStyle=orthogonalEdgeStyle;rounded=0;orthogonalLoop=1;jettySize=auto;html=1;entryX=0.5;entryY=0;entryDx=0;entryDy=0;" edge="1" parent="1" source="vlVaum-pDu78f8PmDwP4-24" target="vlVaum-pDu78f8PmDwP4-31">
          <mxGeometry relative="1" as="geometry" />
        </mxCell>
        <mxCell id="vlVaum-pDu78f8PmDwP4-24" value="storage 제품 개수 100개?" style="rhombus;whiteSpace=wrap;html=1;" vertex="1" parent="1">
          <mxGeometry x="-10" y="680" width="180" height="80" as="geometry" />
        </mxCell>
        <mxCell id="vlVaum-pDu78f8PmDwP4-27" value="" style="endArrow=classic;html=1;entryX=0.5;entryY=1;entryDx=0;entryDy=0;" edge="1" parent="1" target="vlVaum-pDu78f8PmDwP4-16">
          <mxGeometry width="50" height="50" relative="1" as="geometry">
            <mxPoint x="80" y="640" as="sourcePoint" />
            <mxPoint x="290" y="450" as="targetPoint" />
            <Array as="points">
              <mxPoint x="560" y="650" />
            </Array>
          </mxGeometry>
        </mxCell>
        <mxCell id="vlVaum-pDu78f8PmDwP4-29" value="" style="endArrow=classic;html=1;entryX=0.5;entryY=1;entryDx=0;entryDy=0;" edge="1" parent="1" target="vlVaum-pDu78f8PmDwP4-15">
          <mxGeometry width="50" height="50" relative="1" as="geometry">
            <mxPoint x="80" y="640" as="sourcePoint" />
            <mxPoint x="330" y="690" as="targetPoint" />
            <Array as="points">
              <mxPoint x="330" y="670" />
            </Array>
          </mxGeometry>
        </mxCell>
        <mxCell id="vlVaum-pDu78f8PmDwP4-31" value="종료" style="ellipse;whiteSpace=wrap;html=1;" vertex="1" parent="1">
          <mxGeometry x="20" y="800" width="120" height="80" as="geometry" />
        </mxCell>
      </root>
    </mxGraphModel>
  </diagram>
</mxfile>
